Coordinates
version=1
nRows=8
nColumns=36
inDegrees=yes

Units are S.I. units (second, meters, Newtons, ...)
If the header above contains a line with 'inDegrees', this indicates whether rotational values are in degrees (yes) or radians (no).

endheader
time	pelvis_tilt	pelvis_list	pelvis_rotation	pelvis_tx	pelvis_ty	pelvis_tz	hip_flexion_r	hip_adduction_r	hip_rotation_r	knee_angle_r	knee_angle_r_beta	ankle_angle_r	subtalar_angle_r	mtp_angle_r	hip_flexion_l	hip_adduction_l	hip_rotation_l	knee_angle_l	knee_angle_l_beta	ankle_angle_l	subtalar_angle_l	mtp_angle_l	lumbar_extension	lumbar_bending	lumbar_rotation	arm_flex_r	arm_add_r	arm_rot_r	elbow_flex_r	pro_sup_r	arm_flex_l	arm_add_l	arm_rot_l	elbow_flex_l	pro_sup_l
      0.00000000	     -1.93764207	      0.73616408	     -0.26413531	     -0.99373505	      1.38067162	     -0.04554311	     -3.29028659	      2.26161129	    -12.66516829	      0.11557169	      0.00201711	      9.70396845	     -5.36177161	     -5.29127837	     -3.89036623	     -0.34129788	    -11.97495974	      0.16401991	      0.00286269	      5.23532965	     -3.73790978	     -5.29127837	     -8.25039445	      1.04720968	      0.53848340	      3.04239788	     -8.91535380	     13.39935059	     26.65494917	     76.95677684	     -0.94850298	    -10.63814645	     15.57499912	     31.29173286	     69.67923650
      0.00416670	     -3.53792732	      0.50914707	     -0.49212091	     -0.99268450	      1.37962411	     -0.04440171	     -1.56819438	      2.97293728	    -13.82841747	      0.12506849	      0.00218286	     10.84142228	     -2.94297170	     -5.65422030	     -2.01269621	     -0.37065788	    -14.49868780	      0.15485481	      0.00270273	      6.66392206	     -1.87809324	     -5.65422030	     -5.88199844	      1.14719677	      0.84768449	      2.63705627	     -7.91919953	      9.55317059	     26.26925572	     76.47450488	     -1.28647578	     -9.72463355	     12.63043837	     30.76315211	     69.63791612
      0.00833330	     -4.14316645	      0.95657580	     -1.18738247	     -0.99431353	      1.37907482	     -0.04433293	     -0.79246393	      2.80279619	    -14.62170433	      0.12074895	      0.00210747	     11.04599689	     -2.89714084	     -6.10557653	     -1.25257518	      0.14956344	    -15.96192035	      0.15560661	      0.00271585	      7.65516440	     -1.48363404	     -6.10557653	     -5.14966802	      0.19307654	      1.86635149	      2.26554266	     -7.01874231	      6.08749551	     26.93715116	     77.12847262	     -0.68732162	     -9.98885486	     12.71734684	     30.53800666	     72.25275125
      0.01250000	     -4.23788939	      1.17725884	     -1.27368047	     -0.99337283	      1.38163114	     -0.04329263	     -0.56795001	      2.61677112	    -15.37693383	      0.11330769	      0.00197759	     11.37636750	     -2.17497056	     -6.29968901	     -1.14270378	      0.43168490	    -16.90963212	      0.14095787	      0.00246018	      8.07624714	     -1.76513355	     -6.29968901	     -4.96966181	     -0.37969740	      2.01585424	      2.25871757	     -6.58724596	      5.79099954	     27.19775192	     76.32317295	     -0.54725253	    -10.47311702	     13.01755278	     30.99163335	     72.36274966
      0.01666670	     -4.47912459	      1.26787610	     -1.47848640	     -0.99193330	      1.37743466	     -0.04272939	     -0.37361045	      2.56935361	    -15.61981540	      0.10926703	      0.00190707	     11.39730960	     -2.07158506	     -6.48753349	     -0.94848808	      0.56139449	    -17.21421740	      0.13690095	      0.00238937	      8.49089012	     -1.64930953	     -6.48753349	     -4.63910628	     -0.56208587	      2.40184660	      2.02789563	     -6.50532507	      5.96899565	     27.88112779	     75.57767392	     -0.50624749	    -10.87502793	     14.13953561	     31.69512320	     73.11789598
      0.02083330	     -4.62211275	      1.33487890	     -1.53789276	     -0.99063409	      1.38019645	     -0.04237911	     -0.25556033	      2.55476129	    -15.42474122	      0.10626222	      0.00185463	     11.28031290	     -2.30089993	     -6.87323350	     -0.87041247	      0.63944371	    -17.05575832	      0.13429972	      0.00234397	      8.59992629	     -1.78030457	     -6.87323350	     -4.41852880	     -0.66524526	      2.76870490	      1.80660300	     -6.48955579	      6.22712960	     28.35683860	     76.34933322	     -0.32631043	    -11.09321673	     14.70533092	     32.16397335	     78.57417962
      0.02500000	     -4.87936683	      1.36206478	     -1.51195597	     -0.99248579	      1.37727907	     -0.04263836	      0.03865182	      2.54297552	    -15.34678066	      0.10368921	      0.00180972	     11.31616434	     -2.24943138	     -6.98182836	     -0.62215401	      0.66297280	    -17.02815247	      0.13320719	      0.00232490	      8.76919677	     -1.93226608	     -6.98182836	     -4.10164024	     -0.67428703	      2.80572977	      1.75044230	     -6.50042986	      6.90012910	     28.84183205	     75.56676154	     -0.30429185	    -11.35815199	     15.50856791	     33.07342959	     78.12421189
      0.02916670	     -5.03581377	      1.42419888	     -1.54477711	     -0.99091457	      1.37968850	     -0.04308516	      0.16673369	      2.46816858	    -15.25456509	      0.10172864	      0.00177550	     11.18692175	     -2.36160478	     -7.09660643	     -0.52269917	      0.74693616	    -17.11580051	      0.13286586	      0.00231895	      8.73172655	     -2.30054569	     -7.09660643	     -3.84330431	     -0.67031109	      2.94492043	      1.76831094	     -6.63134125	      7.82383964	     29.20702701	     75.00932793	     -0.19330069	    -11.48711015	     16.76534097	     33.53152914	     78.26136044
